<svg xmlns="http://www.w3.org/2000/svg" viewBox="6616.047 1275.319 97.969 105.217">
  <defs>
    <style>
      .cls-1 {
        fill: #fc490b;
      }
    </style>
  </defs>
  <path id="html-5" class="cls-1" d="M27.305,3.483l7.273,87.362a3.279,3.279,0,0,0,2.391,2.828l38.27,11.393a3.656,3.656,0,0,0,2.08,0l38.27-11.393a3.279,3.279,0,0,0,2.391-2.828l7.273-87.362A3.322,3.322,0,0,0,121.823,0H30.737A3.322,3.322,0,0,0,27.305,3.483Zm79.3,27.106H59.2l1.43,12.385h44.938l-2.94,35.309L76.28,86.128,49.927,78.283,48.391,59.836H62.223v9.049L76.649,72.52l14.34-3.635L92.1,54.464H47.944L45.012,19.247h62.534Z" transform="translate(6588.752 1275.319)"/>
</svg>
