<svg xmlns="http://www.w3.org/2000/svg" viewBox="7290.532 1286.579 93.153 79.533">
  <defs>
    <style>
      .cls-1 {
        fill: #2c2f33;
      }

      .cls-2 {
        fill: #3c92ca;
      }
    </style>
  </defs>
  <g id="settings" transform="translate(7290.532 1286.579)">
    <g id="Group_36" data-name="Group 36" transform="translate(0)">
      <path id="Path_24" data-name="Path 24" class="cls-1" d="M47.551,173.613l4.657-1.654c2.49-.885,3.669-3.358,2.642-5.487l-1.2-2.49a27.981,27.981,0,0,0,6.121-5.274l2.889,1.032a5.592,5.592,0,0,0,3.726,0,4.585,4.585,0,0,0,2.642-2.277l1.939-4.013c1.026-2.146-.152-4.6-2.642-5.487l-4.277-1.523a1.981,1.981,0,0,0-2.452.885,1.541,1.541,0,0,0,1.026,2.113l4.277,1.523a.929.929,0,0,1,.608,1.261l-1.939,4.013a1.057,1.057,0,0,1-.608.524,1.277,1.277,0,0,1-.855,0l-4.277-1.523a2.054,2.054,0,0,0-2.281.59,24.3,24.3,0,0,1-7.242,6.241,1.512,1.512,0,0,0-.7,1.966l1.768,3.685a.934.934,0,0,1-.608,1.261l-4.657,1.654a1.277,1.277,0,0,1-.855,0,1.058,1.058,0,0,1-.608-.524l-1.768-3.685a1.928,1.928,0,0,0-2.11-.966,30.194,30.194,0,0,1-10.227,0,1.987,1.987,0,0,0-2.11.966l-1.768,3.685a1.2,1.2,0,0,1-1.464.524l-4.657-1.671a1.058,1.058,0,0,1-.608-.524.837.837,0,0,1,0-.737l1.768-3.685a1.5,1.5,0,0,0-.684-1.966,24.3,24.3,0,0,1-7.242-6.241,2.068,2.068,0,0,0-2.281-.606l-4.277,1.523a1.278,1.278,0,0,1-.855,0,1.058,1.058,0,0,1-.608-.524l-1.92-4.013a.837.837,0,0,1,0-.737,1.057,1.057,0,0,1,.608-.524L8.716,149.4a1.58,1.58,0,0,0,1.122-1.818,19.433,19.433,0,0,1,0-8.812,1.607,1.607,0,0,0-1.122-1.818l-4.277-1.523a.929.929,0,0,1-.608-1.261l1.939-4.013a1.2,1.2,0,0,1,1.464-.524l4.277,1.523a2.054,2.054,0,0,0,2.281-.59,24.3,24.3,0,0,1,7.242-6.241,1.512,1.512,0,0,0,.7-1.966l-1.768-3.685a.837.837,0,0,1,0-.737,1.057,1.057,0,0,1,.608-.524l4.657-1.654a1.277,1.277,0,0,1,.855,0,1.058,1.058,0,0,1,.608.524l1.768,3.685a1.989,1.989,0,0,0,2.452.885,1.546,1.546,0,0,0,1.026-2.113l-1.768-3.685a4.585,4.585,0,0,0-2.642-2.277,5.638,5.638,0,0,0-1.863-.328,5.554,5.554,0,0,0-1.863.328l-4.657,1.654a4.585,4.585,0,0,0-2.642,2.277,3.661,3.661,0,0,0,0,3.21l1.2,2.49a27.98,27.98,0,0,0-6.121,5.274L8.7,126.651a5.178,5.178,0,0,0-6.368,2.277L.371,132.941c-1.026,2.146.152,4.6,2.642,5.487L5.9,139.46a22.294,22.294,0,0,0,0,7.453l-2.889,1.032a4.585,4.585,0,0,0-2.642,2.277,3.661,3.661,0,0,0,0,3.21l1.92,4.013a4.585,4.585,0,0,0,2.642,2.277,5.592,5.592,0,0,0,3.726,0l2.889-1.032a27.98,27.98,0,0,0,6.121,5.274l-1.2,2.49a3.661,3.661,0,0,0,0,3.21,4.585,4.585,0,0,0,2.642,2.277l4.657,1.671a5.178,5.178,0,0,0,6.368-2.277l1.2-2.49a34.732,34.732,0,0,0,8.649,0l1.2,2.49a4.585,4.585,0,0,0,2.642,2.277A5.592,5.592,0,0,0,47.551,173.613Z" transform="translate(0 -94.399)"/>
      <path id="Path_25" data-name="Path 25" class="cls-1" d="M107.148,232.934c.057,7.24,6.919,13.088,15.3,13.088h.114a16.568,16.568,0,0,0,10.8-3.931,12.265,12.265,0,0,0,4.41-9.353,1.77,1.77,0,0,0-1.882-1.605h-.019a1.742,1.742,0,0,0-1.863,1.638,9.259,9.259,0,0,1-3.327,7.06,12.39,12.39,0,0,1-8.136,2.965h-.076c-6.33,0-11.5-4.423-11.538-9.877-.038-5.487,5.094-9.975,11.462-10.025a1.742,1.742,0,0,0,1.863-1.638,1.77,1.77,0,0,0-1.882-1.605h-.019C113.9,219.7,107.091,225.661,107.148,232.934Z" transform="translate(-86.78 -184.04)"/>
      <path id="Path_26" data-name="Path 26" class="cls-2" d="M229.538,2.25h-3.669A3.823,3.823,0,0,0,221.8,5.755V7.377a23.583,23.583,0,0,0-5.208,1.867L215.262,8.1a4.407,4.407,0,0,0-2.87-1.032,4.321,4.321,0,0,0-2.87,1.032l-2.585,2.228a3.274,3.274,0,0,0-1.2,2.473,3.212,3.212,0,0,0,1.2,2.473l1.331,1.147a17.266,17.266,0,0,0-2.167,4.488h-1.882a3.823,3.823,0,0,0-4.068,3.505v3.161a3.823,3.823,0,0,0,4.068,3.505H206.1a17.266,17.266,0,0,0,2.167,4.488l-1.331,1.147a3.274,3.274,0,0,0-1.2,2.473,3.212,3.212,0,0,0,1.2,2.473l2.585,2.228a4.407,4.407,0,0,0,2.87,1.032,4.321,4.321,0,0,0,2.87-1.032l1.331-1.147a23.583,23.583,0,0,0,5.208,1.867V46.23a3.823,3.823,0,0,0,4.068,3.505h3.669a3.823,3.823,0,0,0,4.068-3.505V44.609a23.583,23.583,0,0,0,5.208-1.867l1.331,1.147a4.407,4.407,0,0,0,2.87,1.032,4.321,4.321,0,0,0,2.87-1.032l2.585-2.228a3.177,3.177,0,0,0,0-4.947l-1.331-1.147a17.265,17.265,0,0,0,2.167-4.488h1.882a3.823,3.823,0,0,0,4.068-3.505V24.412a3.823,3.823,0,0,0-4.068-3.505h-1.882a17.264,17.264,0,0,0-2.167-4.488l1.331-1.147a3.177,3.177,0,0,0,0-4.947L245.885,8.1a4.407,4.407,0,0,0-2.87-1.032,4.321,4.321,0,0,0-2.87,1.032l-1.331,1.147a23.583,23.583,0,0,0-5.208-1.867V5.755A3.847,3.847,0,0,0,229.538,2.25Zm8.5,10.385a2.156,2.156,0,0,0,1.045.278,2.033,2.033,0,0,0,1.331-.475l2.376-2.047a.308.308,0,0,1,.418,0l2.585,2.228a.233.233,0,0,1,0,.36l-2.376,2.047a1.451,1.451,0,0,0-.228,2.047,14.693,14.693,0,0,1,2.775,5.766,1.842,1.842,0,0,0,1.844,1.31h3.365a.282.282,0,0,1,.3.262v3.161a.282.282,0,0,1-.3.262h-3.365a1.824,1.824,0,0,0-1.844,1.31,14.693,14.693,0,0,1-2.775,5.766,1.468,1.468,0,0,0,.228,2.047l2.376,2.047a.233.233,0,0,1,0,.36l-2.585,2.228a.308.308,0,0,1-.418,0l-2.376-2.08a2.1,2.1,0,0,0-2.376-.2,20.04,20.04,0,0,1-6.691,2.391,1.714,1.714,0,0,0-1.521,1.589v2.9a.282.282,0,0,1-.3.262H225.85a.282.282,0,0,1-.3-.262V43.3a1.7,1.7,0,0,0-1.521-1.589,20.039,20.039,0,0,1-6.691-2.391,2.131,2.131,0,0,0-2.376.2l-2.376,2.047a.308.308,0,0,1-.418,0l-2.585-2.228a.218.218,0,0,1,0-.36l2.376-2.047a1.451,1.451,0,0,0,.228-2.047,14.7,14.7,0,0,1-2.775-5.766,1.842,1.842,0,0,0-1.844-1.31H204.2a.282.282,0,0,1-.3-.262V24.379a.282.282,0,0,1,.3-.262h3.365a1.824,1.824,0,0,0,1.844-1.31,14.7,14.7,0,0,1,2.775-5.766,1.468,1.468,0,0,0-.228-2.047l-2.376-2.047a.218.218,0,0,1,0-.36l2.585-2.228a.308.308,0,0,1,.418,0l2.376,2.047a2.1,2.1,0,0,0,2.376.2,20.039,20.039,0,0,1,6.691-2.391,1.714,1.714,0,0,0,1.521-1.589V5.755a.282.282,0,0,1,.3-.262h3.669a.282.282,0,0,1,.3.262v2.9a1.7,1.7,0,0,0,1.521,1.589A20.04,20.04,0,0,1,238.035,12.635Z" transform="translate(-162.104 -2.25)"/>
      <path id="Path_27" data-name="Path 27" class="cls-2" d="M286.35,97.881c0,5.307,5.018,9.631,11.177,9.631s11.177-4.324,11.177-9.631-5.018-9.631-11.177-9.631S286.35,92.574,286.35,97.881Zm18.572,0c0,3.522-3.327,6.388-7.413,6.388s-7.413-2.866-7.413-6.388,3.327-6.388,7.413-6.388S304.922,94.376,304.922,97.881Z" transform="translate(-231.918 -74.163)"/>
    </g>
  </g>
</svg>
